<?xml version="1.0" standalone="no"?>
<!DOCTYPE svg PUBLIC "-//W3C//DTD SVG 20010904//EN"
 "http://www.w3.org/TR/2001/REC-SVG-20010904/DTD/svg10.dtd">
<svg version="1.0" xmlns="http://www.w3.org/2000/svg"
 width="1179.000000pt" height="1775.000000pt" viewBox="0 0 1179.000000 1775.000000"
 preserveAspectRatio="xMidYMid meet">

<g transform="translate(0.000000,1775.000000) scale(0.100000,-0.100000)"
fill="#000000" stroke="none">
<path d="M0 8875 l0 -8875 2276 0 2277 0 -7 58 c-20 169 -26 203 -35 197 -15
-9 -24 353 -11 428 7 37 16 67 21 67 15 0 10 67 -4 73 -23 9 -39 341 -23 463
8 58 7 63 -14 74 -12 6 -19 14 -16 17 3 4 -4 11 -17 17 -12 7 -27 27 -33 46
-6 19 -18 36 -27 38 -10 2 -17 22 -21 62 -4 36 -12 60 -19 61 -32 2 -52 9 -56
20 -4 14 -76 89 -85 89 -11 0 -44 38 -48 56 -1 9 -16 25 -33 34 -17 9 -31 27
-33 39 -2 12 -10 25 -17 28 -8 2 -26 24 -39 48 -16 26 -32 42 -43 41 -17 -1
-20 9 -37 106 -6 33 -13 40 -53 58 -25 11 -52 20 -59 20 -7 0 -11 6 -8 14 4
11 -9 17 -48 25 -49 10 -221 30 -260 31 -28 0 -22 37 15 82 17 22 33 50 34 62
5 54 21 129 22 101 1 -34 19 -24 26 16 5 24 40 58 61 59 7 0 14 7 18 15 4 11
17 14 46 11 45 -4 90 -38 90 -68 0 -11 7 -18 19 -18 13 0 22 -12 31 -45 10
-37 18 -46 47 -55 41 -14 121 -58 129 -72 4 -6 10 -5 15 3 6 10 9 8 9 -8 0
-13 9 -32 19 -42 11 -11 25 -39 32 -63 6 -24 17 -56 24 -73 16 -37 37 -112 40
-145 5 -43 29 -99 45 -102 10 -2 18 -24 25 -68 9 -56 13 -65 35 -70 16 -4 26
-14 28 -28 2 -12 7 -22 12 -22 5 0 11 -14 15 -30 4 -17 15 -34 24 -40 13 -6
17 -17 14 -34 -5 -26 0 -29 62 -38 12 -2 21 -12 23 -26 2 -13 14 -27 28 -32
15 -6 24 -18 24 -32 1 -35 21 -55 66 -62 33 -6 43 -3 59 13 10 12 24 21 32 21
8 0 11 5 7 12 -5 8 -2 9 10 5 13 -5 19 -1 23 12 3 11 19 24 35 30 20 7 28 16
25 25 -6 16 22 46 44 46 21 0 51 37 36 44 -7 2 -2 5 11 5 13 1 33 11 46 23 13
13 29 24 35 25 6 2 20 12 31 23 11 11 27 20 35 20 9 0 20 11 25 25 7 18 17 25
37 25 17 0 33 8 41 20 7 11 17 20 22 20 13 0 70 57 70 70 0 5 19 13 42 17 31
6 44 14 46 28 6 31 17 37 75 42 52 4 55 4 61 -22 4 -15 4 -36 0 -47 -3 -11 -3
-45 1 -75 5 -44 11 -56 27 -61 18 -4 20 -11 16 -54 -4 -32 -11 -53 -24 -62
-10 -8 -19 -23 -19 -33 0 -12 -12 -22 -35 -29 -19 -6 -36 -16 -38 -23 -2 -6
-9 -11 -16 -11 -16 0 -36 -42 -36 -75 0 -19 7 -24 41 -30 22 -4 65 -4 95 0 51
6 54 8 54 35 0 26 4 28 43 32 23 3 49 8 59 12 17 8 22 -2 32 -54 2 -14 9 -36
14 -50 9 -21 11 -22 11 -5 1 19 2 19 23 -3 12 -12 23 -32 23 -44 4 -86 5 -90
24 -95 29 -7 42 -54 28 -98 -9 -30 -12 -34 -18 -19 -6 17 -8 16 -17 -7 -6 -15
-21 -35 -34 -45 -26 -21 -44 -45 -31 -43 22 4 31 -3 31 -23 0 -13 7 -51 16
-86 12 -49 14 -72 5 -105 -6 -23 -14 -58 -18 -78 -10 -45 -19 -59 -34 -53 -7
2 -17 -6 -22 -18 -6 -12 -21 -25 -35 -28 -16 -4 -26 -14 -28 -28 -2 -12 -15
-30 -28 -39 -14 -9 -32 -29 -40 -44 -8 -17 -23 -29 -34 -29 -12 0 -20 -7 -20
-17 -1 -25 -22 -50 -45 -54 -12 -3 -21 -14 -23 -27 -2 -16 -15 -28 -37 -37
-18 -8 -35 -21 -39 -30 -3 -8 -26 -24 -51 -35 -25 -11 -45 -24 -45 -30 0 -6
-12 -15 -26 -20 -14 -6 -23 -14 -20 -19 11 -17 -6 -42 -24 -36 -12 4 -20 0
-24 -13 -5 -14 -13 -18 -31 -14 -15 2 -25 0 -25 -7 0 -6 6 -11 13 -12 6 0 -18
-10 -55 -22 -94 -31 -98 -37 -51 -81 39 -37 53 -43 53 -26 0 6 7 10 16 10 10
0 14 -6 10 -15 -5 -13 373 -15 3359 -15 l3365 0 0 8875 0 8875 -5895 0 -5895
0 0 -8875z m5258 7813 c19 -19 14 -27 -23 -34 -31 -5 -35 -10 -35 -36 0 -29 1
-30 38 -23 48 9 129 9 169 0 23 -5 32 -14 36 -33 8 -36 -15 -52 -72 -52 -59 0
-88 -8 -95 -27 -3 -7 -2 -12 3 -8 5 3 11 1 13 -5 2 -6 27 -13 55 -17 57 -6
108 8 117 34 5 12 15 14 44 8 20 -4 43 -12 50 -17 7 -6 29 -11 48 -10 33 1 37
-2 52 -39 17 -43 33 -46 42 -8 6 23 10 24 94 27 89 3 116 -5 116 -34 0 -18
-42 -35 -98 -39 -52 -3 -54 -5 -37 -29 12 -16 21 -17 87 -8 107 14 232 -6 241
-38 3 -13 23 -24 61 -35 53 -16 82 -34 54 -36 -36 -1 42 -19 111 -25 74 -6 79
-6 104 20 21 21 35 26 77 26 27 0 50 -4 50 -10 0 -5 -5 -10 -11 -10 -9 0 -8
-4 0 -14 8 -10 57 -15 189 -19 157 -5 288 -18 332 -33 12 -4 12 -7 1 -13 -17
-11 10 -18 104 -27 56 -6 73 -12 88 -31 16 -19 27 -23 68 -22 54 2 73 -8 67
-37 -5 -30 -77 -42 -193 -33 -55 4 -155 8 -223 9 -115 2 -125 4 -145 26 -16
17 -38 25 -82 30 -41 5 -71 16 -97 35 -36 25 -44 27 -125 24 -49 -2 -91 -4
-94 -4 -4 -1 -10 -13 -13 -27 -8 -30 8 -54 35 -54 11 0 19 -4 19 -9 0 -4 11
-6 24 -4 17 4 27 -1 35 -15 8 -14 17 -18 37 -14 17 3 31 0 38 -9 6 -8 32 -24
57 -36 39 -18 53 -20 88 -12 23 5 47 6 54 2 6 -4 27 -10 47 -13 19 -3 34 -12
32 -18 -1 -7 7 -12 19 -12 11 0 27 -6 34 -13 7 -8 41 -17 75 -20 34 -4 66 -9
71 -13 14 -9 -9 -44 -37 -54 -35 -14 -21 -30 25 -30 25 0 44 7 56 20 18 20 15
49 -7 51 -7 1 -2 5 12 9 32 10 140 12 139 3 -4 -27 7 -40 49 -57 50 -21 102
-65 102 -88 0 -10 3 -9 10 2 6 9 10 10 10 3 0 -7 -9 -17 -20 -23 -11 -6 -25
-20 -31 -32 -10 -19 -8 -25 15 -45 15 -13 22 -23 16 -23 -6 0 5 -19 24 -42 20
-23 36 -48 36 -55 0 -7 6 -13 14 -13 8 0 16 -5 18 -11 2 -6 25 -12 51 -13 33
-2 51 -8 61 -21 10 -14 29 -19 81 -21 38 -2 71 -7 75 -11 11 -12 20 -87 12
-99 -18 -29 -112 -15 -139 21 -18 23 -34 29 -80 26 -21 -1 -23 -6 -23 -52 0
-42 3 -52 20 -56 11 -3 20 -9 20 -13 0 -4 18 -10 40 -14 35 -5 40 -10 40 -32
0 -14 7 -32 15 -40 8 -9 15 -23 15 -32 0 -15 -13 -17 -106 -15 -58 0 -108 4
-111 7 -4 3 1 6 10 6 29 0 18 17 -14 24 -49 9 -59 7 -59 -12 0 -13 7 -18 23
-18 17 1 22 -5 22 -24 0 -23 6 -26 60 -37 33 -7 87 -13 120 -14 61 -1 90 -13
79 -31 -4 -6 0 -14 7 -19 8 -5 16 -3 20 3 5 8 12 6 24 -5 9 -10 32 -17 52 -17
29 0 33 -2 24 -14 -17 -20 3 -30 30 -15 19 10 21 9 16 -5 -3 -8 -2 -18 3 -21
6 -4 10 5 10 19 0 13 -5 26 -10 28 -16 5 12 57 33 64 22 7 74 -13 99 -38 13
-13 34 -18 78 -18 l60 0 0 -40 c0 -21 -5 -51 -12 -65 -9 -21 -18 -25 -53 -25
-35 0 -46 -5 -69 -32 -29 -36 -32 -50 -12 -67 11 -9 18 -7 33 13 24 29 93 52
93 30 0 -8 5 -14 10 -14 15 0 12 -29 -4 -46 -16 -16 -83 -19 -88 -4 -1 5 -9 6
-16 2 -9 -7 -10 -20 -1 -65 11 -51 10 -60 -6 -77 -16 -17 -16 -20 -2 -20 9 0
19 5 22 10 8 13 85 13 85 1 0 -5 -6 -11 -12 -14 -7 -3 6 -2 30 0 34 5 42 3 42
-11 0 -9 5 -16 10 -16 6 0 11 -21 12 -47 1 -27 5 -1 8 57 l6 105 2 -100 c1
-55 7 -107 12 -115 7 -11 10 -7 11 20 l1 35 8 -30 7 -30 7 27 c4 14 6 78 4
141 -3 127 -16 157 -67 157 -33 0 -48 10 -53 34 -4 23 8 30 113 60 52 16 101
38 124 56 41 33 44 34 63 22 9 -6 11 -25 8 -60 -3 -29 -3 -52 -1 -52 2 0 36
20 76 45 108 67 157 77 261 53 43 -10 64 -23 109 -68 73 -71 79 -98 79 -369 0
-250 2 -267 44 -288 28 -15 29 -17 11 -23 -19 -7 -19 -7 2 -14 12 -4 31 -9 43
-11 33 -6 50 -24 50 -52 0 -16 -7 -27 -19 -30 -13 -3 -18 -10 -14 -21 5 -11 2
-14 -10 -9 -9 3 -19 1 -23 -5 -11 -17 -4 -141 7 -153 16 -15 37 20 50 83 10
51 12 54 25 37 14 -18 14 -18 15 1 2 31 17 -24 18 -66 1 -19 8 -48 17 -65 9
-16 18 -55 19 -85 1 -30 3 -60 3 -67 1 -6 25 -19 52 -28 28 -9 50 -22 49 -28
-5 -38 16 -52 56 -37 16 6 25 6 25 0 0 -6 6 -10 14 -10 16 0 26 30 26 78 0 36
15 72 30 72 12 0 40 -43 45 -67 2 -10 4 -19 4 -21 1 -1 11 4 24 11 12 8 33 13
47 13 l25 -1 0 -162 c0 -90 -3 -163 -7 -163 -5 0 -8 -15 -8 -34 0 -18 -7 -51
-16 -72 -9 -22 -18 -66 -21 -99 -6 -70 -10 -77 -29 -50 -20 27 -34 82 -34 133
0 28 -4 42 -13 42 -7 0 -26 14 -42 30 -32 33 -45 38 -45 15 0 -8 -4 -15 -9
-15 -18 0 -19 -47 -4 -173 14 -118 18 -132 42 -153 14 -13 34 -24 44 -24 10 0
17 -8 17 -19 0 -12 -7 -18 -17 -17 -15 1 -19 -9 -22 -59 -7 -116 -4 -232 7
-262 7 -21 48 -15 64 9 8 12 19 18 26 14 19 -11 14 -40 -9 -55 -21 -13 -22
-18 -17 -168 3 -86 10 -158 15 -162 6 -3 13 -31 18 -61 12 -93 12 -105 -6
-102 -20 3 -28 -38 -21 -109 6 -64 31 -69 33 -6 l2 42 7 -50 c10 -62 12 -197
4 -246 -5 -29 -10 -36 -24 -32 -18 5 -19 -4 -18 -128 2 -139 -11 -202 -45
-223 -20 -13 -47 9 -47 39 0 14 -13 33 -35 49 -19 15 -35 33 -35 40 0 8 -7 19
-15 26 -8 7 -15 21 -15 31 0 11 -4 19 -8 19 -4 0 -14 34 -21 75 -12 73 -13 75
-42 75 -23 0 -29 4 -29 21 0 15 -5 19 -15 15 -10 -4 -21 7 -36 35 -11 23 -23
38 -26 35 -3 -3 -20 2 -37 12 -17 9 -38 17 -46 17 -8 0 -15 7 -15 16 0 23 -24
49 -46 49 -12 0 -19 7 -19 20 0 11 -6 20 -14 20 -7 0 -16 9 -19 21 -4 17 -10
19 -29 13 -33 -10 -67 -37 -68 -52 0 -25 20 -51 35 -46 8 4 15 1 15 -5 0 -6
-11 -11 -25 -11 -17 0 -25 -5 -25 -17 0 -15 2 -16 10 -3 5 8 11 12 13 10 10
-13 27 -91 27 -123 0 -20 5 -39 10 -42 6 -3 10 -15 10 -26 0 -12 7 -19 20 -19
14 0 21 -9 26 -35 4 -24 14 -39 32 -48 25 -11 28 -20 43 -127 9 -63 17 -106
19 -95 1 14 7 8 21 -22 17 -38 32 -49 62 -44 4 0 7 -5 7 -12 0 -14 31 -34 60
-39 29 -6 33 -138 4 -138 -8 0 -14 -4 -14 -10 0 -5 6 -10 13 -10 10 0 12 -11
8 -42 -5 -35 -10 -44 -29 -46 -12 -2 -29 4 -38 13 -10 10 -23 13 -33 9 -9 -4
-35 -9 -58 -12 -35 -3 -46 0 -65 21 -19 20 -28 23 -41 15 -13 -7 -25 -5 -42 6
-22 15 -25 14 -49 -15 -23 -27 -26 -40 -28 -122 -2 -51 -2 -118 0 -150 2 -59
-11 -102 -29 -92 -18 11 -26 -41 -32 -198 -3 -86 -9 -162 -12 -168 -4 -6 -12
-4 -20 7 -11 15 -13 14 -18 -17 -3 -19 -9 -56 -12 -84 -13 -107 -15 -116 -40
-125 -18 -7 -23 -16 -22 -44 0 -19 3 -34 6 -34 21 2 20 -5 -2 -22 -14 -11 -37
-20 -51 -20 -23 0 -26 -4 -27 -37 -1 -21 -1 -43 0 -50 1 -6 -8 -14 -19 -18
-11 -4 -27 -17 -35 -29 -11 -16 -22 -22 -39 -19 -14 3 -23 0 -23 -9 0 -7 -5
-32 -12 -54 -9 -33 -17 -43 -39 -47 -15 -3 -40 -17 -55 -31 -16 -14 -32 -26
-36 -26 -5 0 -6 -11 -3 -25 5 -28 39 -35 48 -10 3 8 21 20 40 27 25 9 34 18
34 34 0 30 13 37 69 36 25 0 40 2 34 5 -13 5 52 73 69 73 6 0 7 7 4 16 -4 9 0
24 8 33 8 9 17 27 19 41 8 41 18 60 32 60 7 0 15 7 19 15 3 8 13 15 23 15 41
1 48 16 54 124 5 102 17 136 47 136 10 0 15 18 27 98 4 25 12 42 20 42 8 0 16
17 20 40 4 22 11 42 15 45 5 3 12 30 16 61 5 40 10 54 20 50 20 -7 36 65 30
127 -7 57 -13 68 -26 47 -8 -13 -10 -12 -14 0 -12 40 -18 80 -20 137 l-1 63
35 -1 c83 -3 93 -12 90 -84 -7 -219 -3 -245 31 -245 14 0 19 -11 23 -57 12
-120 27 -195 46 -233 17 -33 20 -58 19 -157 -1 -65 -4 -107 -8 -93 -10 38 -16
13 -16 -67 0 -42 4 -73 10 -74 16 -1 24 -33 31 -119 7 -81 16 -95 40 -62 12
15 13 14 14 -10 0 -22 5 -28 23 -28 45 -1 56 -21 59 -110 l3 -84 57 -15 c32
-8 60 -12 64 -9 3 4 10 64 14 135 12 168 11 163 20 128 6 -24 8 -18 8 30 0 40
-2 53 -8 40 -7 -19 -8 -18 -13 5 -10 39 -25 131 -31 180 -6 50 17 261 32 300
l11 25 1 -25 c4 -55 19 33 26 144 8 151 10 165 17 173 4 3 7 14 7 24 0 10 9
24 20 32 14 10 22 30 27 65 5 48 7 50 42 56 20 3 54 6 76 6 42 1 75 18 75 40
0 8 8 10 25 6 15 -4 37 0 54 9 27 14 30 13 34 -3 3 -9 5 -1 6 19 0 20 8 50 17
68 l16 32 22 -23 c14 -15 20 -32 18 -50 -4 -23 0 -28 34 -37 21 -6 40 -9 42
-6 2 2 11 -3 20 -11 10 -10 17 -42 20 -90 4 -68 3 -74 -15 -74 -10 0 -23 4
-28 9 -6 5 -33 16 -62 24 -51 15 -52 15 -78 -9 -14 -13 -33 -24 -41 -24 -8 0
-17 -13 -21 -30 -7 -36 -35 -54 -70 -45 -47 12 -63 -2 -63 -53 0 -26 7 -55 14
-65 12 -16 20 -17 52 -8 34 9 41 8 61 -11 16 -15 23 -33 23 -60 0 -49 -14 -76
-46 -88 -19 -7 -24 -17 -24 -42 0 -39 10 -78 19 -78 8 0 44 58 52 85 3 11 11
19 17 17 7 -1 12 3 12 9 0 6 8 18 17 27 16 16 16 17 0 20 -21 4 -22 18 -2 26
17 6 31 -15 40 -67 4 -20 10 -37 14 -37 4 0 13 -44 19 -98 14 -119 19 -137 37
-122 10 9 16 6 25 -10 6 -12 9 -26 6 -33 -2 -7 -5 -5 -5 4 -1 11 -10 17 -26
17 -22 0 -25 -5 -25 -38 0 -52 11 -101 21 -95 4 3 6 12 2 20 -3 8 -1 15 3 16
55 5 75 27 74 84 0 119 8 268 19 330 15 94 29 145 30 120 1 -11 4 -45 7 -75
26 -292 16 -662 -17 -609 -15 25 -20 2 -30 -132 -11 -134 -33 -234 -50 -223
-5 3 -9 0 -9 -6 0 -6 -5 -55 -11 -108 -8 -71 -17 -105 -33 -127 -17 -24 -23
-47 -25 -110 -3 -70 -7 -85 -32 -119 -16 -22 -29 -48 -29 -58 0 -55 -24 -168
-36 -168 -7 0 -15 -8 -18 -17 -4 -14 -26 -174 -26 -190 0 -2 -11 -3 -24 -3
-26 0 -36 -21 -36 -81 0 -28 -6 -41 -24 -53 -18 -11 -27 -28 -32 -63 -8 -56
-37 -118 -58 -126 -8 -3 -18 -26 -22 -53 -4 -31 -15 -55 -30 -69 -13 -12 -24
-29 -24 -37 0 -8 -11 -20 -26 -26 -14 -7 -32 -28 -40 -47 -8 -19 -18 -34 -22
-34 -28 5 -50 -4 -55 -21 -3 -11 -12 -20 -21 -20 -18 0 -59 -23 -92 -52 -18
-16 -134 -38 -201 -38 -7 0 -13 -7 -13 -15 0 -8 -6 -15 -14 -15 -19 0 -32 20
-14 21 33 3 -43 17 -94 18 -32 1 -58 6 -58 11 0 14 -42 12 -62 -4 -11 -8 -15
-20 -11 -35 4 -14 0 -26 -11 -34 -16 -12 -40 -128 -39 -187 6 -203 2 -330 -12
-369 -10 -28 -16 -86 -17 -165 l-2 -121 -6 125 -6 125 -2 -122 c-1 -74 -6
-123 -12 -123 -5 0 -10 -21 -10 -46 0 -50 -14 -84 -34 -84 -15 0 -32 -57 -42
-137 -3 -29 -9 -53 -14 -53 -14 0 -60 -117 -60 -154 0 -29 -4 -36 -19 -36 -12
0 -23 -11 -29 -27 -6 -16 -11 -22 -11 -15 -1 9 -6 10 -20 2 -15 -7 -22 -7 -28
2 -19 30 -40 39 -67 28 -32 -12 -33 -27 -1 -73 19 -28 21 -38 11 -44 -7 -5
-19 -18 -25 -31 -8 -14 -18 -21 -27 -18 -9 3 -17 -1 -20 -12 -15 -47 -35 -82
-48 -82 -9 0 -16 -12 -18 -27 -2 -20 -14 -34 -43 -50 -22 -13 -34 -23 -26 -23
14 0 12 -42 -4 -82 -6 -14 -2 -18 16 -18 27 1 59 21 59 38 0 6 6 9 13 6 16 -6
47 27 51 53 2 10 7 18 12 19 5 0 21 4 35 8 14 4 34 8 44 10 11 2 29 22 42 46
26 48 58 80 83 80 25 0 40 21 40 57 0 19 5 33 12 33 6 0 31 9 55 21 36 17 43
26 48 57 14 92 40 196 44 172 2 -20 7 -14 26 35 12 33 26 59 31 58 5 -1 15 3
22 9 9 8 12 -18 12 -128 0 -151 -5 -184 -26 -184 -19 0 -44 -53 -44 -95 0 -28
4 -35 19 -35 11 0 22 -6 25 -12 5 -10 7 -10 12 0 3 6 19 12 35 12 l29 0 -1
-77 c0 -43 -4 -87 -9 -98 -7 -17 -9 -17 -9 -2 -1 9 -5 17 -11 17 -22 0 -9
-116 23 -203 10 -29 12 -50 4 -87 -8 -42 -7 -54 8 -77 13 -19 15 -28 6 -31 -9
-3 -9 -7 0 -18 14 -17 7 -97 -11 -118 -15 -19 -40 -9 -40 14 0 11 -4 21 -9 25
-6 3 -4 24 4 53 19 60 19 104 0 148 -29 70 -63 10 -64 -112 -1 -39 -7 -92 -15
-118 -11 -36 -12 -55 -4 -78 10 -27 8 -34 -11 -49 -12 -10 -27 -19 -33 -21 -8
-3 -12 -25 -10 -65 2 -54 -1 -65 -23 -88 -21 -23 -37 -67 -40 -110 -1 -14 27
-34 45 -34 10 0 8 3 -5 9 -16 7 -11 9 22 9 45 1 73 21 73 52 0 13 7 19 23 19
26 0 47 17 47 37 0 20 74 94 96 97 12 2 21 13 24 32 3 18 12 30 25 32 29 6 47
23 41 39 -4 9 6 19 29 29 19 8 35 20 35 28 0 26 33 78 56 88 13 6 24 19 24 29
0 27 11 49 25 49 7 0 15 21 19 53 8 56 29 133 52 185 18 43 18 48 -6 70 -12
11 -24 40 -29 70 -7 48 -7 51 16 55 16 3 27 -2 33 -14 6 -10 22 -24 38 -31 17
-8 28 -23 30 -38 6 -47 24 -90 37 -90 26 0 36 -40 38 -146 2 -84 -1 -107 -13
-114 -8 -5 -20 -8 -27 -5 -15 5 -34 -18 -36 -44 -1 -12 -5 -21 -9 -21 -4 0 -8
-7 -8 -15 0 -8 -7 -15 -15 -15 -8 0 -15 -7 -15 -15 0 -9 -20 -35 -45 -58 -25
-24 -45 -48 -45 -53 0 -5 -16 -21 -35 -37 -21 -17 -32 -33 -29 -42 4 -9 0 -15
-9 -15 -22 0 -47 -28 -47 -53 0 -32 -18 -56 -28 -39 -6 8 -13 -7 -22 -44 -11
-44 -20 -61 -41 -73 -26 -14 -30 -24 -45 -101 -3 -14 -11 -32 -17 -40 -24 -30
-37 -60 -37 -85 0 -17 -8 -29 -23 -36 -22 -10 -47 -58 -47 -90 0 -8 -10 -19
-21 -24 -20 -10 -50 -70 -52 -107 -2 -23 -17 -24 -17 -1 0 20 -13 9 -16 -15
-10 -72 -28 -152 -35 -152 -5 0 -9 -7 -9 -16 0 -9 -7 -22 -17 -29 -9 -7 -22
-36 -30 -66 -8 -30 -25 -65 -38 -79 -13 -14 -27 -43 -30 -65 -4 -22 -13 -45
-21 -51 -8 -6 -20 -38 -28 -70 -8 -32 -15 -52 -16 -44 -2 33 -46 -72 -65 -154
-5 -23 -9 -26 -15 -16 -13 21 -20 9 -35 -64 -15 -69 -45 -130 -45 -91 0 16 -5
12 -20 -13 -11 -18 -18 -37 -15 -42 3 -4 -6 -22 -20 -38 -14 -16 -25 -33 -25
-36 0 -4 -18 -29 -40 -57 -22 -28 -40 -61 -40 -74 0 -14 -7 -25 -20 -28 -11
-3 -20 -13 -20 -24 0 -10 -7 -27 -15 -37 -8 -10 -12 -24 -8 -29 4 -7 -1 -8
-12 -3 -20 7 -47 -23 -55 -64 -4 -16 -12 -24 -23 -24 -10 1 -30 -13 -45 -32
-15 -19 -33 -34 -40 -34 -7 0 -15 -14 -19 -30 -3 -19 -16 -37 -34 -47 -15 -9
-30 -25 -32 -35 -3 -10 -14 -18 -25 -18 -12 0 -24 -6 -29 -12 -7 -13 -9 -18
-12 -37 0 -5 -11 -11 -23 -13 -16 -2 -26 -14 -34 -38 -6 -19 -18 -36 -25 -38
-24 -8 -49 -34 -49 -53 0 -11 -10 -21 -25 -25 -14 -3 -25 -10 -25 -16 0 -12
-96 -108 -108 -108 -6 0 -9 -8 -8 -17 0 -9 -13 -26 -31 -37 -18 -12 -32 -28
-33 -36 0 -8 -9 -21 -20 -28 -11 -7 -20 -22 -20 -35 0 -15 -3 -18 -8 -9 -9 14
-44 -27 -56 -66 -5 -14 -13 -21 -21 -18 -8 3 -20 -8 -29 -28 -8 -18 -26 -37
-39 -43 -22 -10 -38 -47 -41 -91 -1 -7 -20 -21 -42 -31 -26 -12 -46 -29 -53
-47 -22 -53 -36 -74 -48 -74 -20 0 -43 -30 -43 -56 0 -22 -5 -26 -27 -23 -10
1 -41 -71 -42 -99 -1 -14 -10 -27 -26 -34 -14 -6 -27 -23 -30 -39 -4 -16 -11
-31 -16 -34 -11 -7 -31 -54 -55 -127 -10 -33 -24 -58 -34 -61 -9 -2 -17 -10
-18 -18 -2 -32 -20 -102 -21 -81 -1 12 -5 22 -11 22 -5 0 -10 -2 -10 -4 0 -3
-5 -40 -11 -83 -12 -90 -32 -143 -52 -143 -16 0 -27 -21 -27 -50 0 -27 -16
-33 -72 -31 -58 2 -103 22 -110 49 -3 11 -18 21 -35 25 -24 5 -32 13 -36 36
-5 25 -12 31 -32 31 -18 0 -28 7 -35 25 -9 24 -14 27 -50 29 -9 1 -16 13 -18
29 -2 15 -12 33 -23 40 -10 6 -19 16 -19 21 0 15 -42 56 -57 56 -7 0 -18 11
-23 25 -7 18 -17 25 -35 25 -20 0 -29 7 -36 30 -8 22 -17 30 -35 30 -13 0 -29
9 -36 20 -7 11 -20 20 -29 20 -9 0 -19 7 -23 15 -3 8 -17 15 -31 15 -15 0 -24
4 -20 10 3 6 0 10 -8 10 -8 0 -17 6 -20 14 -3 8 -26 22 -51 31 -25 10 -48 26
-51 36 -7 20 -24 26 -95 33 -25 2 -48 5 -52 5 -4 1 -8 11 -10 23 -3 22 -22 30
-121 52 -20 5 -27 11 -23 21 3 8 0 15 -6 15 -7 0 -6 5 2 15 7 8 9 15 5 15 -19
0 30 40 56 45 40 9 99 63 99 92 0 15 6 23 18 23 21 0 89 23 99 34 4 4 8 15 8
24 0 9 13 19 33 24 18 5 32 15 32 24 0 8 13 23 30 32 16 9 30 23 30 30 0 8 14
19 30 25 18 7 33 21 36 34 4 13 18 29 32 35 14 7 29 24 32 37 3 16 17 27 40
35 24 8 36 19 40 36 3 14 14 27 25 29 11 2 24 9 28 17 4 8 15 14 24 14 9 0 13
6 9 15 -3 9 0 15 9 15 8 0 20 10 26 23 6 12 24 32 40 45 16 13 29 30 29 38 0
8 3 13 8 12 19 -5 54 16 63 38 5 14 13 23 18 20 4 -3 16 3 26 14 10 11 24 20
31 20 7 0 19 12 26 27 7 15 26 34 42 42 16 7 31 21 33 32 3 10 18 22 34 28 16
5 29 17 29 26 0 9 15 22 34 30 23 10 36 23 38 37 2 17 11 24 33 28 22 4 31 11
33 28 3 22 34 46 46 35 3 -3 11 8 17 25 11 31 17 35 76 47 34 7 54 35 25 36
-13 0 -11 3 6 9 12 5 22 14 22 20 0 5 8 10 19 10 22 0 45 25 36 40 -4 6 6 13
23 16 23 5 31 13 36 36 4 21 14 32 37 40 17 6 34 21 39 34 5 13 15 24 22 24 7
0 19 14 27 30 9 21 22 33 42 37 27 5 29 8 29 54 0 36 -4 49 -14 49 -17 0 -46
-54 -46 -87 0 -21 -4 -23 -56 -23 -35 0 -67 -6 -85 -17 -29 -18 -38 -33 -18
-33 25 0 -50 -57 -91 -69 -25 -7 -60 -18 -77 -23 -18 -5 -33 -15 -33 -22 0 -7
-18 -18 -40 -25 -31 -9 -40 -17 -40 -34 0 -30 -18 -47 -49 -47 -26 0 -68 -20
-43 -20 6 0 12 -4 12 -10 0 -5 -9 -10 -20 -10 -11 0 -20 4 -20 10 0 5 -11 -2
-25 -15 -13 -14 -31 -25 -40 -25 -9 0 -15 -9 -15 -21 0 -14 -10 -24 -29 -32
-17 -6 -32 -21 -36 -34 -4 -18 -12 -23 -40 -23 -28 0 -35 4 -35 20 0 22 -31
33 -76 28 -21 -2 -30 -9 -32 -25 -3 -19 1 -23 21 -23 18 0 27 -7 31 -24 13
-51 -14 -69 -64 -43 -27 14 -60 12 -60 -4 0 -5 -7 -9 -16 -9 -9 0 -14 -6 -11
-13 9 -24 -7 -34 -68 -43 -34 -6 -59 -14 -58 -21 1 -6 -6 -9 -16 -6 -22 6 -71
-40 -71 -66 0 -18 -17 -28 -92 -51 -20 -6 -48 -20 -61 -30 -15 -12 -49 -22
-93 -26 -38 -4 -72 -11 -75 -16 -9 -14 -151 -12 -159 3 -5 7 -22 10 -44 7 -24
-3 -36 0 -36 8 0 8 16 14 38 16 l37 3 -31 17 c-23 13 -34 14 -42 6 -9 -9 -18
-6 -37 12 -13 12 -22 27 -19 31 3 5 -2 9 -10 9 -9 0 -16 4 -16 8 0 13 -101 55
-132 55 -33 0 -38 17 -5 18 l22 0 -22 16 c-13 9 -23 26 -23 39 0 15 -6 24 -15
24 -11 0 -15 11 -15 40 0 22 -4 40 -8 40 -4 0 -14 15 -22 32 l-13 33 -4 -32
c-5 -41 -14 -42 -32 -2 -10 23 -13 68 -12 160 2 86 -1 129 -8 129 -7 0 -11 30
-11 80 0 66 -3 80 -16 80 -12 0 -11 6 9 29 21 25 24 37 20 74 -6 50 11 92 33
83 10 -4 14 3 14 24 0 17 5 30 11 30 6 0 17 7 25 15 14 14 62 21 109 16 31 -3
127 32 133 49 9 24 24 30 79 30 61 0 83 -7 83 -26 0 -8 8 -18 18 -21 9 -4 19
-9 22 -12 8 -9 80 -41 92 -41 7 0 25 -12 40 -27 l28 -27 0 27 c0 19 5 27 18
27 13 0 14 -2 4 -9 -10 -6 -3 -17 29 -45 23 -20 48 -36 54 -36 7 0 20 -9 30
-20 13 -14 31 -20 62 -20 23 0 43 -4 43 -10 0 -5 18 -10 40 -10 22 0 40 5 40
11 0 6 21 9 56 8 59 -3 79 10 68 43 -3 11 3 22 15 30 12 7 21 21 21 30 0 11 8
18 19 18 10 0 21 7 25 15 3 8 16 19 29 24 17 7 28 25 42 71 10 33 26 65 34 70
14 8 14 11 2 19 -12 8 -12 12 2 25 8 9 21 16 27 16 7 0 20 10 31 23 16 19 20
20 29 7 8 -13 15 -10 42 17 31 31 31 33 10 33 -20 0 -22 5 -22 56 0 63 13 96
35 88 10 -4 15 0 15 14 0 11 14 34 31 51 26 26 38 31 80 31 37 0 49 -4 49 -15
0 -11 11 -15 40 -15 29 0 40 4 40 15 0 8 -7 15 -16 15 -14 0 -15 2 -3 17 13
15 14 15 17 0 5 -24 21 -21 44 8 11 14 28 25 38 25 9 0 23 7 30 15 7 8 21 15
31 15 15 0 19 8 19 40 0 33 3 40 20 40 17 0 20 7 20 49 0 43 3 50 23 56 84 22
131 42 135 57 5 19 35 34 40 19 2 -6 17 -8 35 -4 33 6 61 23 39 23 -9 0 -9 5
0 20 7 11 21 20 30 20 12 0 21 13 28 40 11 41 30 63 30 35 0 -9 6 -15 12 -12
7 2 13 10 13 18 0 7 14 18 30 23 82 26 102 40 121 89 10 26 24 47 31 47 7 0
13 7 13 15 0 9 13 24 30 33 16 9 30 20 30 25 0 4 9 7 20 7 11 0 20 6 20 14 0
19 66 57 85 50 10 -4 15 0 15 15 0 11 7 38 16 60 13 32 26 45 72 67 38 19 51
30 39 32 -10 2 -29 10 -44 17 -35 18 -51 10 -55 -28 -3 -29 -7 -33 -43 -38
-22 -3 -65 -18 -95 -32 -39 -18 -81 -27 -142 -32 -64 -5 -88 -11 -88 -20 0 -8
-8 -16 -17 -20 -10 -3 -27 -24 -38 -48 -17 -35 -20 -39 -23 -19 -4 27 -13 28
-30 2 -11 -18 -23 -20 -109 -20 -75 0 -94 -3 -85 -12 19 -19 14 -26 -27 -33
-72 -12 -148 -40 -144 -52 5 -14 -21 -26 -82 -40 -22 -5 -39 -14 -38 -20 1 -6
-12 -16 -30 -23 -29 -10 -34 -9 -52 15 -14 17 -30 25 -50 24 -32 -1 -89 -16
-67 -18 24 -2 -11 -28 -49 -36 -19 -4 -36 -10 -39 -14 -7 -9 -69 -32 -115 -42
-48 -10 -467 0 -459 12 5 9 -50 41 -58 34 -2 -3 -29 4 -59 15 -35 12 -53 24
-51 33 1 8 -11 20 -28 27 -34 14 -54 4 -66 -33 -7 -24 -33 -57 -44 -57 -8 0
-33 55 -37 79 -1 7 -5 17 -10 22 -12 11 -85 -17 -105 -41 l-17 -21 -35 31
c-34 31 -35 31 -66 15 -18 -9 -29 -19 -26 -23 4 -3 -16 -12 -44 -19 -38 -9
-57 -10 -72 -2 -11 6 -17 13 -14 16 9 9 -15 33 -33 33 -18 0 -47 38 -43 57 1
6 -2 14 -8 18 -5 3 -10 -1 -10 -9 0 -9 -4 -16 -10 -16 -5 0 -10 12 -10 28 0
15 -5 34 -10 42 -8 13 -10 12 -10 -2 0 -22 -14 -23 -34 -3 -8 8 -22 15 -31 15
-27 0 -95 40 -95 56 0 8 -7 17 -16 21 -12 4 -14 14 -10 35 4 23 -2 41 -26 79
-18 27 -37 49 -43 49 -6 0 -11 22 -12 48 -1 49 -25 112 -43 112 -6 0 -10 8
-10 18 0 9 -9 23 -20 30 -25 15 -26 32 -3 32 14 0 10 7 -15 32 -37 38 -60 32
-77 -18 -5 -16 -14 -35 -18 -41 -20 -32 -107 2 -107 41 0 13 -7 29 -15 36 -11
9 -15 35 -15 109 l0 96 37 32 c34 29 36 32 16 33 -31 0 -29 4 14 44 27 24 40
31 46 23 5 -7 5 -2 2 11 -4 13 -1 29 5 37 7 8 17 75 24 148 7 83 17 141 25
151 18 22 101 23 101 1 0 -8 9 -15 20 -15 17 0 20 7 20 40 0 33 -3 40 -20 40
-12 0 -20 7 -20 18 0 9 -9 23 -20 30 -24 14 -26 32 -5 32 9 0 18 8 22 18 3 9
16 28 28 42 13 14 25 43 28 65 3 22 9 65 13 95 4 30 13 59 20 63 18 10 18 37
0 37 -18 0 -27 36 -16 63 5 12 9 16 9 10 2 -23 45 6 71 48 23 37 27 39 72 39
32 0 47 4 46 12 -4 16 77 30 130 23 50 -7 262 13 277 26 5 6 4 9 -5 9 -10 0
-11 3 -3 11 6 6 79 15 165 21 84 5 194 16 244 25 76 13 108 14 185 5 118 -15
777 -17 843 -4 27 5 51 14 55 19 3 5 23 17 44 26 20 10 37 22 37 27 0 5 -21
12 -47 15 -27 3 -69 11 -94 16 -25 6 -115 12 -200 13 -85 2 -176 8 -204 15
-135 31 -396 41 -413 15 -14 -21 -108 -35 -242 -35 -74 0 -182 0 -240 0 -124
-1 -280 19 -287 36 -3 11 -77 25 -153 30 -8 1 -27 5 -42 9 -24 7 -28 13 -28
48 0 29 -7 46 -26 65 -26 26 -26 26 -11 77 9 28 18 64 22 80 5 23 10 27 29 24
22 -4 24 -1 30 46 3 28 6 68 6 88 0 20 4 40 10 43 6 3 10 -3 10 -15 0 -12 5
-18 10 -15 6 3 10 16 10 28 0 34 56 97 86 97 14 0 36 11 50 25 27 27 44 32 44
13 0 -8 5 -6 10 4 6 9 24 19 41 23 19 4 34 16 39 30 16 41 56 52 155 43 24 -2
32 -9 39 -35 11 -35 34 -46 59 -28 15 11 16 19 6 64 -8 39 -17 54 -37 64 -17
8 -26 20 -25 32 3 27 -16 85 -28 85 -14 0 -48 33 -43 42 14 23 -34 17 -89 -10
-43 -22 -75 -31 -103 -30 -40 2 -42 4 -60 51 -16 40 -26 52 -60 68 -42 19 -54
38 -54 92 0 16 -4 26 -10 22 -6 -4 -11 8 -12 27 -1 18 -2 44 -3 58 -1 14 -2
37 -3 53 -1 17 -8 27 -17 27 -10 0 -16 11 -17 35 -1 19 -2 43 -2 53 -1 10 6
16 16 16 10 -1 20 7 23 17 4 11 10 17 14 14 12 -7 21 138 21 333 0 155 2 172
17 172 15 0 15 1 -1 13 -12 9 -20 31 -24 65 -2 29 -8 52 -13 52 -14 0 -10 89
6 150 8 30 15 73 15 95 0 22 6 50 14 61 20 28 19 364 -1 364 -8 0 -13 14 -13
40 0 29 4 40 15 40 8 0 15 5 15 10 0 6 -6 10 -13 10 -25 0 -35 42 -25 110 5
36 6 92 2 125 -10 81 -11 156 -1 162 4 2 7 15 7 29 0 16 8 28 23 34 45 19 87
69 87 105 0 36 21 99 29 86 10 -15 41 29 41 57 0 36 21 81 38 81 49 1 82 14
82 32 0 15 7 19 40 19 22 0 40 5 40 10 0 6 4 10 10 10 14 0 42 -59 36 -76 -8
-20 26 -88 35 -72 5 8 10 3 14 -15 4 -14 13 -31 21 -38 8 -6 14 -20 14 -31 0
-10 8 -22 18 -25 21 -8 32 -23 32 -46 0 -10 11 -28 25 -41 13 -13 22 -26 19
-29 -4 -3 1 -13 10 -22 9 -9 16 -23 16 -30 0 -8 14 -21 30 -30 27 -14 30 -20
30 -63 0 -33 3 -43 10 -32 7 12 10 11 16 -5 4 -11 13 -23 20 -28 7 -4 18 -34
25 -67 6 -32 14 -59 18 -58 3 1 14 -2 24 -6 13 -6 17 -20 17 -61 0 -59 15
-109 29 -100 14 8 27 -22 34 -77 4 -26 14 -65 23 -85 10 -21 16 -42 15 -46 0
-4 6 -10 14 -13 9 -4 15 -19 15 -35 0 -16 9 -38 20 -49 11 -11 24 -39 29 -62
19 -82 44 -117 96 -128 23 -5 45 -22 45 -34 0 -22 19 -25 162 -26 179 -2 225
-8 231 -30 3 -14 21 -18 97 -23 167 -12 350 -9 350 6 0 30 -45 37 -245 40
l-200 2 -3 27 c-3 23 -9 27 -55 34 -29 4 -57 7 -63 6 -7 -1 -14 5 -18 13 -3 9
-11 13 -17 9 -7 -4 -17 0 -23 8 -6 8 -27 18 -46 22 -44 8 -92 60 -100 106 -4
25 -11 35 -24 35 -20 0 -22 4 -52 72 -11 25 -24 41 -31 38 -7 -2 -13 -1 -14 3
-1 7 -2 13 -14 82 -4 19 -12 42 -19 50 -14 17 -28 79 -52 230 -9 57 -23 114
-30 125 -15 22 -35 216 -32 306 2 51 -1 60 -34 98 -35 41 -35 44 -30 106 4 60
3 65 -15 65 -11 0 -26 7 -34 16 -10 13 -10 17 2 25 21 13 27 11 31 -12 3 -20
4 -19 37 5 27 20 37 23 51 13 22 -13 50 5 50 33 0 32 12 51 39 62 l26 11 -25
7 c-18 5 -4 9 50 14 117 12 185 30 184 49 -1 11 6 17 20 18 11 1 41 2 66 4 25
2 53 1 63 -2 18 -5 18 -5 0 -18 -16 -12 -13 -14 26 -25 56 -15 75 -10 79 20 2
14 8 29 12 34 5 5 70 8 144 7 167 -2 206 3 199 30 -4 14 0 19 16 19 11 0 20 6
18 12 -4 20 63 47 143 57 41 5 158 12 260 15 102 3 190 6 195 6 6 1 -6 9 -25
20 -27 15 -57 19 -125 20 -129 2 -233 25 -260 57 -7 9 -67 14 -205 17 -172 3
-202 2 -255 -15 -33 -11 -72 -26 -88 -35 -17 -10 -60 -16 -119 -18 -57 -2 -94
-8 -96 -15 -2 -6 -9 -11 -16 -11 -7 0 -26 -6 -42 -14 -39 -19 -184 -32 -184
-17 0 22 -29 10 -47 -19 -9 -16 -23 -30 -29 -30 -7 0 -29 -9 -51 -19 -21 -11
-46 -22 -56 -25 -10 -3 -16 -10 -12 -16 7 -11 -12 -16 -119 -30 -43 -5 -82
-12 -86 -15 -16 -10 -22 -86 -9 -117 11 -26 10 -32 -4 -40 -9 -5 -20 -9 -24
-9 -18 -1 -43 -34 -43 -56 0 -21 -4 -24 -27 -21 -21 2 -29 9 -31 28 -4 30 -23
83 -33 90 -4 3 -10 18 -13 33 -10 55 -30 96 -50 102 -12 4 -93 10 -181 15 -91
4 -188 15 -224 25 -35 9 -80 18 -100 21 -58 7 -95 16 -107 26 -7 5 -23 11 -35
13 -13 3 -33 9 -44 14 -17 8 -80 22 -164 35 -13 2 -27 9 -31 16 -4 6 -27 14
-51 16 -24 3 -60 12 -79 19 -19 7 -48 17 -65 20 -27 7 -28 8 -10 16 16 7 14 8
-8 4 -22 -5 -33 0 -48 20 -11 14 -29 25 -39 25 -10 0 -25 6 -32 13 -20 21 -54
37 -77 37 -11 0 -25 8 -30 19 -11 19 -51 29 -156 37 -33 3 -73 9 -89 14 -16 6
-38 10 -50 10 -12 0 -27 9 -34 20 -8 13 -23 20 -44 20 -33 0 -82 13 -133 35
-16 8 -43 16 -60 20 -16 3 -38 16 -48 28 -52 66 -58 72 -63 60 -4 -9 -12 -9
-32 -1 -15 6 -51 10 -79 9 -42 -2 -53 1 -53 13 0 10 -9 16 -23 16 -22 0 -23 3
-17 43 7 46 29 87 46 87 6 0 17 7 24 15 7 8 28 15 48 15 l35 0 -7 61 c-3 34
-6 88 -6 120 0 90 -19 70 -23 -23 l-3 -83 -2 88 c-1 63 -7 95 -19 113 -11 17
-16 42 -14 72 1 26 -3 48 -9 52 -9 5 -8 16 4 38 9 17 16 40 16 50 0 11 7 25
15 32 24 20 18 37 -21 60 -33 21 -34 23 -18 41 10 11 12 19 6 19 -7 0 -12 16
-12 40 0 53 -18 51 -22 -2 -3 -26 -5 -13 -6 32 -1 86 -3 96 -21 128 -6 12 -9
31 -6 42 7 21 -20 80 -35 80 -6 0 -10 18 -10 40 0 25 -5 40 -12 40 -7 0 -21
19 -30 43 -22 51 -26 277 -7 277 8 0 10 18 6 60 -4 33 -4 87 0 120 5 50 9 60
24 60 16 0 19 -8 19 -55 0 -45 4 -58 25 -80 26 -25 55 -33 55 -15 0 6 18 10
40 10 22 0 40 -4 40 -10 0 -5 4 -10 9 -10 5 0 12 39 16 87 4 48 14 102 21 119
9 21 10 34 3 36 -5 2 -12 57 -16 126 -5 98 -3 137 12 197 13 56 21 75 31 71 8
-3 21 6 30 19 9 14 25 25 35 25 11 0 19 4 19 9 0 5 10 11 23 15 17 5 19 8 8
15 -11 7 -11 10 0 17 7 4 14 3 17 -4 2 -7 10 -12 18 -12 8 0 14 -5 14 -11 0
-6 21 -9 53 -7 46 3 52 6 55 26 6 37 -16 54 -65 50 -39 -3 -43 -1 -48 23 -4
15 -4 81 0 148 l6 121 -41 0 c-29 0 -40 -4 -40 -15 0 -8 5 -15 12 -15 22 0 -2
-13 -29 -16 -16 -1 -56 -7 -91 -13 -52 -9 -68 -8 -93 4 -16 9 -27 20 -24 25 4
6 2 10 -4 10 -5 0 -11 -6 -14 -12 -2 -7 -7 10 -11 38 l-7 51 -227 6 c-175 6
-228 4 -234 -5 -5 -7 -7 -57 -5 -110 3 -84 8 -106 35 -160 74 -148 247 -182
409 -80 23 15 43 32 43 37 0 6 9 16 21 23 16 10 24 10 35 1 21 -17 17 -32 -21
-82 -51 -67 -169 -142 -243 -155 -224 -40 -443 126 -473 358 -34 268 128 501
361 518 110 8 224 -22 281 -74 11 -10 22 -14 26 -11 3 4 1 7 -5 7 -16 0 -15
27 1 34 6 3 0 4 -15 1 -28 -5 -28 -5 -28 49 0 35 5 60 15 70 17 16 38 112 29
127 -3 5 8 22 25 36 17 15 31 35 31 45 0 19 22 27 87 31 33 1 43 6 44 20 1 9
3 22 4 27 1 6 3 15 4 20 0 6 8 10 16 10 16 0 57 72 61 106 1 12 -6 31 -17 43
-25 26 -53 28 -47 3 6 -20 -33 -44 -52 -32 -20 12 -7 55 18 58 15 2 22 10 22
26 0 27 18 46 42 46 34 0 21 89 -19 128 -19 19 -16 40 8 52 17 9 23 8 35 -7 7
-10 14 -22 14 -26 0 -5 12 -7 28 -5 22 2 27 8 26 28 -1 14 -4 33 -9 43 -11 26
1 45 32 49 22 2 29 9 33 33 3 20 12 31 28 35 17 3 28 18 38 45 18 51 11 83
-21 91 -24 6 -35 24 -15 24 17 0 42 48 35 68 -3 11 -15 22 -26 25 -15 4 -23
-2 -32 -25 -11 -27 -18 -31 -62 -34 -28 -2 -61 -6 -75 -9 -14 -2 -19 -2 -12 1
6 3 12 14 12 24 0 19 10 24 73 35 42 7 57 30 57 91 0 19 3 34 8 35 70 5 98 12
105 25 19 34 46 52 91 58 25 4 46 12 46 17 0 15 47 59 64 59 8 0 16 5 18 12 2
6 11 12 19 14 89 13 135 27 142 40 8 14 11 14 18 3 7 -11 10 -11 21 2 11 14
54 27 95 30 21 2 43 22 43 38 0 16 13 21 83 30 45 7 102 10 125 8 41 -4 45 -2
54 24 10 29 10 29 93 29 50 0 87 4 91 11 3 6 15 9 25 6 13 -3 23 2 30 15 8 15
17 18 37 13 15 -4 31 -13 35 -21 12 -22 47 -17 73 11 26 28 35 30 52 13z m62
-54 c0 -2 -9 -4 -20 -4 -11 0 -20 4 -20 9 0 5 9 7 20 4 11 -3 20 -7 20 -9z
m267 -14 c1 -16 -4 -20 -33 -20 -27 0 -34 4 -34 20 0 16 7 20 33 20 26 0 33
-4 34 -20z m601 -137 c3 -10 -14 -13 -62 -13 -61 0 -84 8 -69 24 12 12 126 2
131 -11z m417 -35 c52 -7 86 -18 98 -30 19 -20 22 -20 150 -23 51 -1 92 -6 99
-13 7 -7 20 -12 29 -12 9 0 19 -9 22 -19 3 -14 14 -20 33 -20 54 0 99 -16 102
-35 6 -27 -15 -36 -84 -36 -94 0 -155 11 -162 29 -10 27 -24 31 -117 31 -108
0 -206 15 -216 32 -6 9 -38 14 -100 15 -77 1 -94 4 -113 22 -12 12 -28 21 -34
21 -17 0 -15 19 2 26 15 6 132 20 181 23 17 1 66 -4 110 -11z m649 -206 c2 -4
1 -14 -3 -21 -11 -18 -45 -10 -49 12 -3 12 3 17 22 17 14 0 27 -4 30 -8z m125
-71 c12 -8 12 -12 -3 -26 -15 -15 -21 -16 -41 -5 -13 7 -31 10 -39 7 -11 -5
-16 0 -16 13 0 17 7 20 43 20 23 0 48 -4 56 -9z m76 -91 c3 -5 1 -10 -4 -10
-6 0 -11 5 -11 10 0 6 2 10 4 10 3 0 8 -4 11 -10z m-3715 -50 c0 -5 -7 -10
-15 -10 -8 0 -15 5 -15 10 0 6 7 10 15 10 8 0 15 -4 15 -10z m3784 -15 c-4
-15 -2 -25 5 -25 14 0 15 -37 1 -45 -5 -3 -10 -19 -10 -36 0 -29 0 -29 -61
-29 -37 0 -58 4 -54 10 3 6 1 10 -5 10 -18 0 15 40 52 63 l33 21 -25 7 c-25 7
-25 7 3 8 20 1 31 7 34 21 3 11 12 20 19 20 10 0 13 -7 8 -25z m136 -25 c0 -5
10 -9 23 -7 16 1 22 -3 22 -18 0 -18 -7 -20 -54 -20 -41 0 -56 4 -65 18 -9 14
-8 20 4 27 20 13 70 13 70 0z m-3980 -16 c0 -14 -3 -14 -15 -4 -8 7 -15 14
-15 16 0 2 7 4 15 4 8 0 15 -7 15 -16z m185 -48 c26 -24 27 -46 1 -46 -24 0
-76 -31 -76 -45 0 -9 -6 -12 -15 -9 -8 4 -15 1 -15 -6 0 -8 -9 -11 -25 -8 -23
5 -25 2 -25 -33 0 -38 -1 -39 -38 -39 -36 0 -79 -30 -65 -44 4 -3 -15 -6 -40
-6 -40 0 -47 3 -47 20 0 16 7 20 36 20 39 0 64 18 64 47 0 26 19 43 50 43 17
0 29 8 35 23 6 12 20 23 33 25 17 3 22 10 22 31 0 15 5 32 12 39 20 20 65 14
93 -12z m3874 -73 c21 -5 20 -7 -15 -19 -24 -8 -40 -10 -42 -4 -5 13 -35 13
-49 -1 -6 -6 -20 -8 -32 -4 -17 5 -18 9 -8 20 13 15 102 20 146 8z m-4204
-191 c-3 -3 -11 0 -18 7 -9 10 -8 11 6 5 10 -3 15 -9 12 -12z m175 -22 c0 -5
-9 -10 -20 -10 -11 0 -20 5 -20 10 0 6 9 10 20 10 11 0 20 -4 20 -10z m-271
-42 c-4 -31 2 -48 17 -48 9 0 18 -9 21 -20 3 -11 10 -20 17 -21 6 -1 -4 -5
-23 -9 -45 -11 -56 -5 -81 38 -15 25 -24 32 -29 23 -7 -10 -15 -9 -42 5 -29
15 -31 19 -14 22 11 2 24 8 30 13 15 14 106 11 104 -3z m179 -21 c3 -15 -1
-17 -25 -11 -15 4 -34 14 -42 21 -12 12 -8 14 25 11 28 -2 40 -8 42 -21z
m-457 -62 c0 -6 -10 -12 -23 -13 -19 -4 -20 -2 -9 12 15 17 33 18 32 1z m199
-71 c0 -20 -4 -25 -16 -20 -9 3 -18 6 -20 6 -2 0 -4 9 -4 20 0 13 7 20 20 20
15 0 20 -7 20 -26z m-1819 -153 c48 -129 139 -362 155 -398 8 -17 14 -34 14
-37 0 -4 20 -57 44 -119 24 -62 67 -173 96 -247 28 -74 54 -139 57 -144 3 -4
32 56 63 135 147 364 222 552 339 849 l17 45 203 2 c168 1 203 -1 208 -13 9
-24 -15 -41 -65 -49 -75 -11 -111 -30 -127 -68 -15 -37 -11 -220 19 -770 19
-336 17 -332 163 -361 52 -10 58 -14 58 -36 0 -24 -3 -25 -55 -23 -70 1 -462
1 -514 -1 -27 -1 -42 4 -50 17 -14 22 2 33 59 43 69 11 115 34 131 67 14 25
15 55 10 191 -14 322 -37 780 -40 783 -2 2 -34 -74 -71 -169 -38 -95 -94 -236
-125 -313 -31 -77 -101 -254 -156 -392 -100 -255 -115 -281 -149 -253 -8 6
-22 35 -31 63 -9 29 -25 70 -34 92 -25 57 -179 450 -201 513 -10 29 -29 78
-42 110 -14 31 -46 112 -72 180 -26 67 -50 121 -52 119 -4 -4 -15 -134 -54
-624 -20 -258 -21 -274 -4 -299 20 -30 81 -59 147 -68 47 -7 67 -28 49 -50 -7
-8 -86 -11 -273 -11 l-263 1 -3 26 c-3 24 1 26 59 37 85 15 131 39 151 81 11
22 23 94 33 195 9 88 29 270 45 405 17 135 33 288 36 340 6 91 6 97 -17 123
-22 25 -112 57 -160 57 -26 0 -44 27 -30 44 9 11 51 14 206 14 l193 0 33 -87z
m8844 65 c0 -23 -15 -31 -88 -46 -32 -6 -70 -22 -85 -35 l-27 -23 -3 -518 c-2
-378 1 -526 9 -547 15 -35 57 -58 134 -72 49 -9 61 -15 63 -32 4 -25 -16 -33
-68 -28 -38 4 -427 6 -500 2 -42 -2 -45 0 -45 23 0 21 6 26 55 36 30 6 69 17
85 23 61 23 60 9 63 551 2 272 0 510 -3 529 -10 52 -42 77 -129 96 -67 15 -76
20 -76 39 l0 23 308 -1 c294 -1 307 -2 307 -20z m-7207 -18 c16 -16 15 -35 -3
-42 -20 -7 -45 3 -45 18 0 13 20 36 30 36 3 0 11 -5 18 -12z m4917 -168 c-3
-5 -14 -2 -25 8 -19 16 -19 17 -3 23 19 7 38 -14 28 -31z m72 -52 c-2 -7 2
-21 10 -30 21 -23 8 -60 -19 -56 -28 4 -43 30 -33 54 8 17 10 25 14 39 0 3 8
5 17 5 9 0 14 -6 11 -12z m-309 -57 c2 -13 -2 -28 -10 -32 -19 -12 -79 1 -101
22 -18 16 -18 17 0 28 10 6 38 10 63 8 39 -2 45 -5 48 -26z m462 -39 c0 -5 10
-8 23 -8 13 1 22 -5 22 -14 0 -11 -14 -16 -57 -18 -62 -3 -84 12 -53 35 21 14
65 18 65 5z m-260 -252 c-6 -11 -15 -18 -21 -14 -6 4 -6 11 2 20 17 21 31 17
19 -6z m227 -202 c-2 -13 -4 -3 -4 22 0 25 2 35 4 23 2 -13 2 -33 0 -45z m840
-420 c-3 -8 -6 -5 -6 6 -1 11 2 17 5 13 3 -3 4 -12 1 -19z m581 -976 c7 -62 6
-72 -7 -72 -13 0 -16 11 -15 58 3 120 9 124 22 14z m-248 -52 c0 -5 -4 -10
-10 -10 -5 0 -10 5 -10 10 0 6 5 10 10 10 6 0 10 -4 10 -10z m-5621 -1888 c4
-6 85 -13 191 -17 288 -9 349 -26 295 -80 l-20 -20 29 -3 c16 -2 32 0 35 5 7
10 111 12 111 2 0 -20 -37 -27 -140 -28 -63 -1 -133 -6 -155 -12 -22 -6 -64
-16 -94 -22 -31 -7 -57 -19 -59 -27 -3 -8 -11 -19 -18 -23 -8 -4 -14 -15 -14
-23 0 -8 -5 -12 -10 -9 -6 4 -8 10 -5 15 8 13 -22 20 -82 20 -67 0 -183 -19
-183 -30 0 -31 -244 -35 -275 -4 -7 8 -21 14 -30 14 -27 0 -37 45 -18 85 9 19
23 35 30 35 8 0 13 13 13 39 0 35 3 40 31 50 18 6 41 11 52 11 16 0 17 3 8 14
-10 12 -8 15 11 20 39 8 290 -2 297 -12z m186 -292 c23 -26 22 -92 -2 -125
-36 -49 -53 -26 -54 68 -1 80 18 99 56 57z m1863 -16 c6 3 13 -20 16 -52 13
-104 17 -121 37 -127 25 -8 24 -35 -1 -35 -13 0 -20 7 -20 20 0 15 -7 20 -25
20 -34 0 -45 31 -45 122 0 61 2 69 15 58 8 -6 18 -9 23 -6z m-1604 -109 l20
-48 -22 -18 c-12 -9 -28 -19 -34 -21 -8 -3 -5 -14 9 -34 11 -16 24 -39 27 -52
7 -20 12 -22 44 -16 20 4 43 13 50 21 17 17 27 17 42 -2 7 -8 17 -15 23 -15
10 0 57 -50 57 -62 0 -4 -4 -10 -10 -13 -5 -3 -10 -15 -10 -26 0 -16 -7 -19
-40 -19 -33 0 -40 3 -40 20 0 11 -7 20 -15 20 -11 0 -15 -11 -15 -40 0 -29 4
-40 15 -40 8 0 15 -9 15 -20 0 -11 -4 -20 -9 -20 -16 0 -31 -61 -31 -125 0
-86 -26 -155 -59 -155 -7 0 -11 -30 -11 -80 0 -64 3 -80 15 -80 8 0 19 -9 25
-19 12 -23 14 -141 2 -141 -19 0 -53 -90 -51 -132 2 -24 -3 -57 -11 -74 -10
-24 -19 -30 -44 -30 -49 0 -86 -13 -86 -29 0 -11 -11 -15 -39 -15 -22 0 -52
-5 -68 -11 -40 -16 -536 -16 -541 -1 -2 7 -26 12 -57 12 -38 0 -54 4 -59 15
-3 8 -18 15 -33 15 -57 0 -223 34 -223 46 0 7 -28 15 -77 20 -43 4 -81 8 -85
10 -5 1 -15 2 -23 3 -8 0 -12 7 -9 15 6 16 -32 60 -45 51 -5 -2 -14 2 -20 9
-18 21 -4 26 111 36 57 6 112 11 123 13 17 2 20 -3 19 -30 -2 -26 2 -32 25
-36 14 -3 33 -1 43 4 9 5 53 9 97 9 47 0 81 4 81 10 0 6 -4 10 -9 10 -12 0
-71 59 -71 71 0 5 6 9 14 9 20 0 26 12 31 66 3 26 12 61 20 77 14 28 14 32 -5
52 -11 12 -20 27 -20 33 0 7 -8 12 -17 12 -14 0 -13 4 6 24 13 14 36 30 52 36
16 7 29 18 29 25 0 8 11 22 25 33 31 24 32 40 4 44 -28 4 -44 30 -34 54 5 11
9 22 9 26 2 17 17 19 31 4 9 -9 24 -16 33 -15 14 0 13 2 -3 8 -16 7 -14 9 14
14 19 4 43 7 56 7 12 0 30 9 40 20 11 12 26 18 35 15 10 -3 23 1 30 10 10 13
9 15 -9 15 -21 0 -21 1 -7 22 9 12 16 32 16 44 0 22 -22 48 -32 39 -3 -3 -10
1 -17 8 -9 11 -8 17 4 27 12 10 15 10 15 0 0 -10 5 -9 18 3 9 8 29 20 45 26
41 16 33 39 -18 56 -34 12 -45 45 -21 64 12 10 35 11 94 4 43 -5 89 -6 103 -2
13 4 45 7 71 8 42 1 49 4 63 31 9 17 24 30 34 30 30 0 79 -20 85 -36 3 -9 20
-14 43 -14 54 0 67 12 60 49 -8 40 0 60 30 72 14 5 27 18 30 30 8 30 25 18 47
-36z m1800 -115 c6 -41 -5 -82 -18 -69 -10 10 -19 97 -12 115 10 26 23 5 30
-46z m-2487 -62 c-3 -8 -6 -5 -6 6 -1 11 2 17 5 13 3 -3 4 -12 1 -19z m5363
-122 c0 -33 -1 -34 -25 -23 -41 19 -31 48 18 56 4 0 7 -14 7 -33z m1212 -8
c-10 -22 -11 -21 -11 12 -1 26 2 31 11 22 8 -8 8 -17 0 -34z m-7107 -1078
l-30 -8 37 -1 c20 0 40 -6 43 -11 5 -8 11 -7 20 0 10 8 20 8 37 -1 30 -16 348
-26 668 -22 135 2 268 1 297 -2 46 -6 93 -30 93 -49 0 -4 7 -14 15 -22 20 -20
19 -44 -1 -44 -15 0 -16 -8 -11 -60 4 -34 12 -70 17 -81 12 -22 4 -63 -11 -54
-10 6 -24 -22 -33 -67 -5 -20 -13 -28 -27 -28 -17 0 -20 -5 -16 -22 5 -21 10
-136 8 -196 -1 -13 -5 -21 -10 -18 -4 3 -16 -3 -26 -14 -18 -19 -17 -20 3 -20
30 0 28 -6 -13 -41 -19 -17 -33 -35 -30 -39 3 -5 1 -19 -4 -33 -5 -14 -6 -49
-2 -80 4 -31 4 -62 -1 -69 -6 -10 -8 -8 -8 5 0 9 -5 17 -10 17 -15 0 -37 -55
-51 -128 -8 -43 -15 -59 -21 -50 -5 8 -8 -20 -7 -72 2 -51 -2 -94 -9 -107 -7
-12 -12 -31 -12 -43 0 -12 -16 -38 -35 -57 -19 -19 -37 -49 -41 -68 -4 -24
-12 -35 -30 -39 -13 -4 -24 -12 -24 -19 0 -7 -9 -18 -20 -25 -11 -7 -20 -22
-20 -35 0 -12 -16 -46 -35 -76 -19 -29 -35 -59 -35 -67 0 -8 -4 -14 -10 -14
-5 0 -10 -17 -10 -37 -1 -40 -23 -92 -36 -83 -13 9 -43 -44 -45 -80 -2 -19 -2
-112 -1 -207 2 -164 3 -173 23 -184 27 -14 80 -4 110 21 12 12 33 23 46 26 14
4 22 13 21 22 -2 11 11 19 47 28 28 6 43 12 35 13 -11 1 -11 4 -2 13 15 15 16
68 1 68 -12 0 -8 104 4 117 9 9 84 -17 98 -33 15 -18 -7 -115 -25 -108 -6 2
-20 -1 -29 -8 -16 -12 -17 -23 -8 -118 5 -59 5 -129 1 -160 -5 -30 -9 -62 -9
-71 -1 -9 -10 -19 -21 -22 -11 -3 -22 -11 -24 -19 -2 -7 -9 -32 -15 -55 -7
-26 -18 -43 -26 -43 -8 0 -15 -9 -15 -20 0 -29 -26 -76 -45 -84 -9 -3 -14 -10
-11 -14 4 -7 -4 -53 -18 -97 -2 -5 -4 -14 -5 -20 -1 -5 -10 -19 -20 -30 -17
-18 -41 -77 -47 -113 -1 -8 -9 -19 -18 -25 -17 -14 -50 -103 -42 -116 7 -10
-23 -20 -42 -14 -6 3 -10 9 -7 13 7 11 -52 43 -65 35 -4 -3 -11 21 -15 52 -7
68 -23 105 -51 117 -15 7 -24 25 -33 67 -6 32 -16 59 -22 61 -11 4 -30 167
-33 275 -1 39 -7 68 -17 80 -9 10 -24 46 -34 80 -16 54 -16 72 -7 132 7 38 12
106 12 150 0 88 5 111 26 111 8 0 14 8 14 18 0 21 33 56 43 45 4 -3 12 8 18
25 6 18 15 32 20 32 5 0 9 18 9 40 0 23 -5 40 -11 40 -7 0 -8 7 -4 18 5 9 10
35 11 57 9 107 20 160 32 160 18 0 31 25 33 60 2 26 3 24 8 -10 l6 -40 19 29
c25 36 40 224 33 412 -5 133 -16 178 -41 168 -10 -4 -14 4 -14 31 0 20 -5 42
-11 48 -6 6 -11 33 -11 59 0 26 -4 48 -10 48 -5 0 -10 22 -10 49 0 33 -6 56
-20 74 -11 14 -20 36 -20 49 0 13 -9 29 -20 36 -15 9 -20 23 -20 58 0 55 -23
102 -55 114 -21 8 -25 16 -25 50 0 22 0 43 0 48 0 9 -59 30 -88 31 -15 1 -26
9 -29 21 -3 11 -10 20 -15 20 -5 0 -7 4 -4 9 3 4 -12 25 -34 45 -28 25 -40 45
-40 64 0 15 -4 33 -9 41 -7 10 -4 19 7 27 24 17 12 24 -52 31 -31 3 -56 9 -56
13 0 11 43 29 70 28 23 0 22 -1 -5 -8z m295 -530 c0 -5 -2 -10 -4 -10 -3 0 -8
5 -11 10 -3 6 -1 10 4 10 6 0 11 -4 11 -10z m646 -1393 c-1 -9 -4 -17 -8 -17
-5 0 -24 0 -43 0 -19 0 -35 5 -35 10 0 6 7 10 16 10 9 0 25 12 37 26 19 25 21
25 27 8 4 -10 7 -27 6 -37z m1067 -244 c-7 -2 -19 -2 -25 0 -7 3 -2 5 12 5 14
0 19 -2 13 -5z m3807 -1993 c0 -5 -5 -10 -11 -10 -5 0 -7 5 -4 10 3 6 8 10 11
10 2 0 4 -4 4 -10z m-5394 -3335 c4 -36 2 -65 -3 -68 -14 -9 -84 25 -79 38 2
6 -2 19 -10 30 -15 20 -19 112 -6 131 4 7 16 14 27 16 28 6 63 -67 71 -147z
m2147 -422 c-7 -2 -19 -2 -25 0 -7 3 -2 5 12 5 14 0 19 -2 13 -5z"/>
<path d="M4842 16570 c0 -14 2 -19 5 -12 2 6 2 18 0 25 -3 6 -5 1 -5 -13z"/>
<path d="M4697 16503 c-13 -12 -7 -33 8 -33 8 0 15 9 15 20 0 20 -11 26 -23
13z"/>
<path d="M4925 16448 c-22 -6 -48 -22 -58 -35 -11 -14 -29 -23 -45 -23 -15 0
-44 -3 -65 -6 -29 -5 -35 -10 -27 -19 14 -17 1 -23 -119 -52 -19 -4 -39 -16
-45 -26 -18 -29 10 -39 89 -32 70 7 111 22 134 49 7 9 39 18 73 22 45 5 66 13
81 30 14 16 35 25 73 30 55 6 76 27 52 50 -19 17 -97 24 -143 12z"/>
<path d="M5523 16345 c0 -16 5 -25 16 -26 12 0 11 -2 -4 -9 -15 -7 -10 -9 23
-9 23 -1 42 -5 42 -11 0 -6 11 -5 27 3 27 12 27 12 -17 18 -37 5 -40 6 -12 7
24 2 32 7 32 21 0 20 -26 31 -76 31 -27 0 -31 -4 -31 -25z"/>
<path d="M5336 16291 c-7 -11 22 -23 36 -15 6 4 5 10 -3 15 -18 11 -26 11 -33
0z"/>
<path d="M5915 16230 c-10 -45 1 -53 61 -47 65 7 74 12 74 41 0 19 -7 25 -37
30 -76 12 -91 9 -98 -24z"/>
<path d="M4640 16203 c0 -22 2 -25 10 -13 13 20 13 40 0 40 -5 0 -10 -12 -10
-27z"/>
<path d="M4413 16203 c-8 -2 -13 -22 -13 -44 0 -32 -3 -39 -20 -39 -11 0 -20
-7 -20 -15 0 -25 -56 -20 -63 6 -3 11 -15 23 -26 26 -11 3 -19 9 -16 13 3 5 1
11 -4 14 -14 9 -32 -55 -23 -84 4 -14 14 -25 22 -25 8 0 16 -10 18 -22 3 -18
-2 -23 -18 -23 -13 0 -24 8 -27 19 -3 12 -15 21 -31 23 -20 2 -29 11 -36 36
-12 42 -47 45 -62 4 -8 -21 -20 -31 -43 -35 -24 -5 -31 -12 -31 -31 0 -28 22
-36 77 -30 71 9 87 -39 19 -52 -20 -3 -36 -11 -36 -17 0 -5 -13 -23 -30 -39
-16 -15 -30 -34 -30 -41 0 -7 -15 -25 -34 -41 -31 -25 -34 -33 -32 -70 3 -50
11 -66 35 -66 32 0 42 24 35 79 -6 45 -5 51 12 52 71 5 104 21 104 49 0 14 7
20 24 20 26 0 51 24 51 49 0 9 14 21 35 27 23 8 36 19 38 33 3 17 10 21 38 21
34 0 35 1 38 50 1 8 10 16 21 18 53 7 95 26 95 43 0 19 19 29 58 29 20 0 23 3
13 9 -12 8 -12 12 -2 25 10 12 7 16 -26 25 -39 11 -89 13 -110 4z"/>
<path d="M3975 16160 c-3 -5 1 -10 9 -10 9 0 16 5 16 10 0 6 -4 10 -9 10 -6 0
-13 -4 -16 -10z"/>
<path d="M5860 16160 c0 -5 7 -10 16 -10 8 0 12 5 9 10 -3 6 -10 10 -16 10 -5
0 -9 -4 -9 -10z"/>
<path d="M6065 16150 c-3 -5 -2 -10 4 -10 5 0 13 5 16 10 3 6 2 10 -4 10 -5 0
-13 -4 -16 -10z"/>
<path d="M5783 16122 c-59 -3 -63 -4 -63 -27 0 -23 4 -25 43 -25 41 1 93 30
85 47 -1 5 -31 7 -65 5z"/>
<path d="M6180 16100 c0 -11 6 -20 13 -20 19 0 27 10 20 26 -8 21 -33 17 -33
-6z"/>
<path d="M5543 16053 c-17 -3 -23 -11 -23 -29 0 -24 2 -25 67 -22 65 3 68 4
68 28 0 23 -5 25 -45 26 -25 1 -55 0 -67 -3z"/>
<path d="M6313 16043 c-7 -2 -13 -9 -13 -15 0 -12 41 -6 41 7 1 12 -11 15 -28
8z"/>
<path d="M7098 16023 c7 -3 16 -2 19 1 4 3 -2 6 -13 5 -11 0 -14 -3 -6 -6z"/>
<path d="M6167 15993 c-13 -12 -7 -41 9 -47 30 -11 64 4 64 30 0 21 -5 24 -33
24 -19 0 -37 -3 -40 -7z"/>
<path d="M6440 15981 c0 -27 29 -34 59 -14 l26 17 -25 7 c-45 13 -60 10 -60
-10z"/>
<path d="M4848 15927 c-54 -22 -24 -60 44 -55 40 3 43 5 43 33 0 26 -4 30 -30
32 -16 1 -42 -4 -57 -10z"/>
<path d="M5445 15931 c-31 -5 -40 -11 -45 -31 -5 -21 -14 -26 -50 -32 -25 -3
-68 -7 -96 -7 -36 -1 -54 -6 -57 -16 -7 -18 2 -24 61 -38 39 -10 48 -16 50
-37 2 -14 7 -29 11 -33 13 -13 92 4 99 22 8 21 29 39 70 57 23 10 32 21 32 38
0 13 8 27 18 31 16 7 15 8 -3 15 -11 5 -14 9 -7 9 10 1 10 4 -2 16 -15 16 -17
16 -81 6z"/>
<path d="M5680 15920 c0 -6 -19 -11 -42 -11 -31 -2 -35 -3 -15 -6 15 -2 25 -9
22 -14 -7 -11 8 -12 90 -9 33 1 62 6 63 11 2 5 11 9 20 9 15 1 15 2 1 10 -23
13 -139 22 -139 10z"/>
<path d="M4740 15873 c-57 -9 -69 -14 -75 -34 -7 -22 -38 -37 -105 -50 -25 -5
-50 -17 -57 -26 -7 -9 -29 -19 -49 -22 -26 -4 -38 -12 -40 -24 -5 -33 -13 -47
-29 -47 -8 0 -15 -5 -15 -10 0 -6 -11 -16 -25 -22 -47 -21 -28 -31 48 -24 95
10 167 25 167 37 0 5 6 9 13 9 42 0 83 22 95 50 11 25 19 30 48 30 20 0 34 5
34 13 1 6 17 24 38 38 44 30 54 74 18 83 -22 6 -24 6 -66 -1z"/>
<path d="M7088 15743 c6 -2 18 -2 25 0 6 3 1 5 -13 5 -14 0 -19 -2 -12 -5z"/>
<path d="M4880 15726 c0 -2 7 -6 15 -10 8 -3 15 -1 15 4 0 6 -7 10 -15 10 -8
0 -15 -2 -15 -4z"/>
<path d="M5277 15714 c6 -15 23 -19 23 -5 0 5 -7 11 -14 14 -10 4 -13 1 -9 -9z"/>
<path d="M4240 15690 c0 -5 7 -10 15 -10 8 0 15 5 15 10 0 6 -7 10 -15 10 -8
0 -15 -4 -15 -10z"/>
<path d="M3920 15650 c0 -13 5 -20 13 -17 6 2 12 10 12 17 0 7 -6 15 -12 18
-8 2 -13 -5 -13 -18z"/>
<path d="M3847 15603 c-4 -3 -7 -19 -7 -35 0 -34 27 -38 39 -5 12 30 -12 60
-32 40z"/>
<path d="M4034 15596 c-10 -26 1 -51 24 -54 26 -4 47 34 30 56 -14 16 -47 15
-54 -2z"/>
<path d="M6770 15530 c-12 -12 -18 -24 -16 -29 3 -4 31 -11 62 -15 31 -3 91
-15 133 -25 182 -45 236 -53 328 -48 93 4 136 -5 98 -19 -18 -7 -18 -8 1 -15
10 -4 47 -8 82 -8 34 -1 62 -5 62 -11 0 -5 9 -10 20 -10 17 0 20 7 20 39 0 40
-20 68 -40 56 -6 -4 -20 1 -30 10 -15 13 -35 17 -85 16 -36 -1 -69 -2 -73 -2
-19 -3 -39 3 -57 17 -17 12 -18 16 -5 24 11 7 9 10 -11 14 -41 10 -277 26
-375 26 -81 0 -97 -3 -114 -20z"/>
<path d="M3783 15532 c-15 -10 -5 -52 12 -52 18 0 47 30 42 44 -4 14 -38 19
-54 8z"/>
<path d="M3980 15505 c0 -28 3 -30 32 -14 21 11 21 12 3 25 -27 20 -35 17 -35
-11z"/>
<path d="M7292 15258 c7 -19 38 -22 38 -4 0 10 -9 16 -21 16 -12 0 -19 -5 -17
-12z"/>
<path d="M7200 15210 c0 -5 -7 -10 -15 -10 -8 0 -15 -4 -15 -10 0 -5 7 -10 15
-10 8 0 15 -4 15 -10 0 -5 18 -10 40 -10 38 0 40 2 40 30 0 28 -2 30 -40 30
-22 0 -40 -4 -40 -10z"/>
<path d="M7351 15201 c-14 -26 -7 -29 44 -17 53 12 57 21 14 30 -45 9 -47 8
-58 -13z"/>
<path d="M7805 14940 c27 -12 35 -12 35 0 0 6 -12 10 -27 9 -25 0 -26 -1 -8
-9z"/>
<path d="M7428 14871 c7 -4 12 -14 10 -21 -5 -23 16 -21 47 5 l30 24 -50 0
c-30 1 -45 -3 -37 -8z"/>
<path d="M7970 14866 c0 -2 7 -9 15 -16 12 -10 15 -10 15 4 0 9 -7 16 -15 16
-8 0 -15 -2 -15 -4z"/>
<path d="M3175 14826 c-52 -23 -101 -92 -121 -171 l-7 -28 164 7 c191 7 205
13 189 80 -5 22 -17 51 -27 64 -42 56 -131 77 -198 48z"/>
<path d="M7667 14823 c-13 -12 -7 -33 9 -33 10 0 5 -9 -16 -27 -27 -22 -35
-25 -51 -14 -23 14 -35 9 -42 -19 -4 -17 0 -20 29 -20 19 0 34 -4 34 -8 0 -5
11 -15 25 -22 14 -7 25 -20 25 -28 0 -23 169 -11 187 14 19 26 16 53 -9 89
-43 63 -124 95 -156 63 -10 -10 -14 -10 -21 0 -4 7 -10 9 -14 5z"/>
<path d="M8580 14763 c-89 -47 -90 -49 -83 -263 4 -104 10 -172 14 -155 6 29
7 29 8 4 0 -15 4 -42 8 -60 l7 -34 7 30 c4 17 6 -5 5 -52 0 -47 -5 -83 -10
-83 -6 0 -5 -5 1 -11 13 -13 36 -3 28 12 -8 12 -9 109 -1 116 3 3 20 0 38 -8
32 -13 61 -14 151 -3 l47 6 0 -56 0 -56 -40 -6 c-51 -8 -53 -22 -3 -18 76 6
87 53 81 369 -3 228 -8 242 -81 276 -60 27 -115 24 -177 -8z"/>
<path d="M7698 14553 c12 -2 32 -2 45 0 12 2 2 4 -23 4 -25 0 -35 -2 -22 -4z"/>
<path d="M7790 14553 c8 -3 19 -12 23 -19 5 -9 26 -14 57 -14 29 0 50 -5 53
-12 4 -9 14 -4 31 15 18 20 32 26 45 22 11 -3 22 -2 25 4 4 5 -45 9 -122 9
-70 1 -120 -2 -112 -5z"/>
<path d="M8603 14112 c20 -22 22 -61 5 -63 -7 -1 -29 -1 -49 0 -34 2 -37 0
-41 -28 -3 -21 0 -31 8 -31 7 0 15 -6 17 -12 4 -10 8 -10 15 1 6 8 26 15 46
15 47 1 40 21 -7 21 -21 0 -37 3 -37 8 0 4 12 7 26 7 28 0 59 24 49 40 -4 6 1
7 12 3 17 -6 17 -5 2 13 -9 10 -14 25 -12 32 3 8 -5 12 -23 12 -26 0 -26 -1
-11 -18z"/>
<path d="M8970 14040 c17 -11 20 -32 5 -42 -6 -5 -6 -8 3 -8 6 0 15 0 19 -1 5
0 11 14 14 30 6 29 5 31 -25 31 -23 0 -27 -3 -16 -10z"/>
<path d="M8725 13870 c-4 -6 -10 -8 -15 -5 -15 10 -34 -28 -31 -64 1 -20 9
-67 16 -105 16 -78 9 -106 -30 -106 -18 0 -25 -5 -25 -20 0 -11 4 -20 9 -20 5
0 13 -9 16 -20 4 -13 15 -20 30 -20 13 0 26 -6 28 -12 4 -10 6 -10 6 0 1 7 15
12 36 12 28 0 35 -4 35 -20 0 -11 -7 -20 -15 -20 -10 0 -15 -10 -15 -29 0 -16
7 -34 15 -41 8 -7 15 -21 15 -31 0 -11 7 -19 15 -19 10 0 15 -10 15 -34 0 -45
19 -96 36 -96 8 0 14 -6 14 -14 0 -8 5 -16 12 -18 6 -2 12 -24 14 -49 1 -36 5
-45 23 -47 28 -4 38 22 23 62 -8 20 -9 32 -2 34 17 6 11 29 -10 35 -23 6 -38
40 -48 111 -6 40 -12 53 -32 63 -14 7 -25 21 -26 31 -2 38 -27 98 -48 114 -19
15 -21 29 -27 175 -3 87 -7 159 -8 161 -3 6 -20 1 -26 -8z"/>
<path d="M8630 13794 c-11 -32 -13 -34 -26 -17 -12 16 -14 11 -15 -44 0 -35
-1 -75 -2 -90 -1 -23 4 -29 26 -31 26 -3 27 -2 27 47 0 27 4 52 9 55 11 7 13
116 2 116 -5 0 -15 -16 -21 -36z"/>
<path d="M9250 13661 c0 -5 -3 -16 -6 -25 -10 -26 10 -18 23 9 9 20 8 25 -3
25 -8 0 -14 -4 -14 -9z"/>
<path d="M9557 13613 c-16 -19 -20 -55 -18 -183 1 -72 2 -76 31 -95 18 -12 30
-29 30 -42 0 -13 4 -23 9 -23 20 0 31 200 16 285 -7 37 -29 75 -45 75 -4 0
-14 -8 -23 -17z"/>
<path d="M3520 13410 c0 -17 7 -20 40 -20 33 0 40 3 40 20 0 17 -7 20 -40 20
-33 0 -40 -3 -40 -20z"/>
<path d="M9113 13195 c-17 -18 -22 -165 -5 -165 6 0 12 -9 12 -20 0 -17 7 -20
39 -20 29 0 41 -5 44 -17 3 -10 5 5 6 32 1 50 1 50 -31 50 l-31 0 2 66 c2 69
-12 100 -36 74z"/>
<path d="M7920 11376 c0 -21 25 -27 128 -33 70 -5 92 -3 92 7 0 7 7 10 15 6 9
-3 15 0 15 8 0 18 -45 26 -156 26 -74 0 -94 -3 -94 -14z"/>
<path d="M8480 11306 c0 -9 6 -16 13 -16 16 0 46 20 30 20 -6 0 -18 3 -27 6
-11 4 -16 1 -16 -10z"/>
<path d="M7200 11300 c0 -5 5 -10 11 -10 5 0 7 5 4 10 -3 6 -8 10 -11 10 -2 0
-4 -4 -4 -10z"/>
<path d="M8794 11232 c-12 -8 -13 -51 -1 -69 16 -25 27 -13 24 26 -3 44 -8 53
-23 43z"/>
<path d="M8847 11134 c-9 -10 -9 -96 1 -110 4 -6 21 -14 39 -17 24 -5 33 -2
38 11 8 20 7 22 -2 21 -5 0 -13 21 -18 48 -8 36 -16 49 -31 51 -11 2 -23 0
-27 -4z"/>
<path d="M6945 11049 c-19 -12 -19 -12 0 -19 13 -5 -10 -10 -60 -14 -124 -11
-188 -27 -207 -50 -9 -12 -22 -21 -29 -21 -14 0 -36 -31 -27 -40 3 -3 15 -7
27 -10 29 -5 41 -14 41 -29 0 -30 23 -35 52 -11 25 21 39 24 116 25 48 1 98 2
112 2 14 1 41 1 61 0 33 -2 36 -5 34 -29 -3 -41 -4 -43 -20 -43 -11 0 -15 -11
-15 -37 0 -25 3 -33 9 -25 6 10 10 7 13 -12 3 -14 0 -27 -6 -29 -24 -9 66 -25
139 -25 83 0 90 -3 90 -35 0 -19 6 -22 53 -25 40 -2 52 0 52 11 0 23 21 34 82
41 54 7 59 6 82 -18 l24 -26 16 25 c10 15 26 25 41 25 26 0 39 14 40 45 0 14
9 21 30 25 24 4 31 11 33 33 3 21 9 27 27 27 27 0 38 -24 34 -75 -4 -36 19
-64 52 -65 8 0 30 -11 49 -25 26 -20 46 -25 89 -25 31 0 63 -5 71 -10 8 -5 11
-10 5 -10 -5 0 8 -12 30 -28 22 -15 53 -39 69 -55 16 -15 43 -31 60 -36 17 -5
25 -10 18 -10 -9 -1 -7 -7 6 -21 27 -29 119 -26 158 6 l29 23 -37 1 c-54 0
-68 9 -68 40 0 31 -27 90 -41 90 -13 0 -39 25 -39 38 0 8 -55 29 -94 34 -19 3
-29 17 -40 51 -4 13 -16 17 -49 17 -59 0 -108 10 -101 21 3 5 -1 9 -9 9 -8 0
-17 6 -20 14 -3 7 -26 18 -51 25 -25 6 -57 22 -72 36 -20 18 -38 25 -69 25
-64 0 -135 12 -129 21 9 15 -69 41 -111 36 -22 -2 -46 -5 -54 -8 -8 -2 -17 8
-24 26 -5 17 -11 32 -13 34 -2 2 -69 10 -149 17 -109 9 -151 16 -165 29 -23
21 -118 30 -145 14z m68 -26 c-7 -2 -19 -2 -25 0 -7 3 -2 5 12 5 14 0 19 -2
13 -5z m522 -154 c4 -5 4 -21 1 -35 -5 -20 -12 -25 -34 -22 -27 3 -39 25 -28
54 6 16 52 19 61 3z m-285 -74 c1 -5 -1 -18 -4 -28 -7 -27 -46 -4 -46 27 0 21
3 23 25 18 13 -4 25 -11 25 -17z m143 -67 c6 -17 -10 -58 -23 -58 -18 0 -50
39 -44 55 7 18 60 20 67 3z"/>
<path d="M6750 10796 c0 -38 -12 -86 -21 -86 -5 0 -9 8 -9 17 0 10 -3 13 -9 8
-4 -6 -5 -32 -1 -60 4 -27 8 -42 9 -33 2 26 20 33 91 33 l65 0 0 54 c-1 65
-25 91 -86 91 -34 0 -39 -3 -39 -24z"/>
<path d="M6161 10774 c0 -11 3 -14 6 -6 3 7 2 16 -1 19 -3 4 -6 -2 -5 -13z"/>
<path d="M10000 10781 c0 -5 17 -7 38 -4 51 7 53 13 4 13 -23 0 -42 -4 -42 -9z"/>
<path d="M6840 10618 c0 -9 5 -20 10 -23 13 -8 13 5 0 25 -8 13 -10 13 -10 -2z"/>
<path d="M7620 10591 c0 -6 5 -13 10 -16 6 -3 10 1 10 9 0 9 -4 16 -10 16 -5
0 -10 -4 -10 -9z"/>
<path d="M6838 10543 c7 -3 16 -2 19 1 4 3 -2 6 -13 5 -11 0 -14 -3 -6 -6z"/>
<path d="M7776 9495 c-36 -27 -9 -38 78 -30 112 9 129 14 115 31 -16 19 -167
19 -193 -1z"/>
<path d="M8000 9495 c0 -8 9 -15 20 -15 11 0 20 7 20 15 0 8 -9 15 -20 15 -11
0 -20 -7 -20 -15z"/>
<path d="M7600 9480 c0 -5 18 -10 40 -10 22 0 40 5 40 10 0 6 -18 10 -40 10
-22 0 -40 -4 -40 -10z"/>
<path d="M7270 9420 c-9 -6 -10 -10 -3 -10 6 0 15 5 18 10 8 12 4 12 -15 0z"/>
<path d="M7337 9423 c18 -2 50 -2 70 0 21 2 7 4 -32 4 -38 0 -55 -2 -38 -4z"/>
<path d="M9410 9426 c0 -2 7 -6 15 -10 8 -3 15 -1 15 4 0 6 -7 10 -15 10 -8 0
-15 -2 -15 -4z"/>
<path d="M9120 9325 c0 -147 -36 -273 -75 -259 -8 3 -14 -9 -18 -36 -6 -49
-14 -60 -27 -40 -6 9 -10 10 -10 3 0 -6 -3 -18 -6 -27 -4 -11 -1 -16 10 -16
21 0 30 -40 23 -102 -7 -57 -32 -102 -52 -94 -9 3 -16 -8 -20 -37 -4 -23 -14
-50 -22 -59 -14 -15 -14 -19 1 -33 9 -9 16 -22 16 -30 0 -7 3 -20 6 -29 4 -11
1 -16 -10 -16 -9 0 -16 8 -16 17 0 9 -2 14 -5 12 -12 -12 9 -79 26 -84 23 -8
25 -41 3 -49 -21 -8 -34 1 -34 25 0 10 -7 19 -15 19 -8 0 -15 -4 -15 -10 0 -5
-7 -10 -15 -10 -18 0 -19 -13 -15 -139 2 -66 -1 -96 -10 -101 -10 -6 -9 -40 5
-158 16 -139 16 -152 1 -167 -19 -20 -21 -49 -3 -67 7 -7 17 -22 21 -33 l9
-20 6 20 c10 35 29 60 38 52 4 -5 0 -14 -10 -22 -14 -10 -15 -14 -4 -23 17
-14 38 17 31 45 -3 11 2 25 10 32 13 11 16 39 16 161 0 156 3 180 26 180 7 0
16 11 19 25 3 14 8 37 11 52 3 14 5 95 5 180 -1 155 4 197 20 172 4 -8 11 -10
15 -6 9 9 33 186 34 250 0 43 2 47 24 47 31 0 37 19 31 94 -3 33 -7 130 -10
215 -6 174 -15 215 -15 66z"/>
<path d="M8975 8800 c-3 -5 -1 -10 4 -10 6 0 11 5 11 10 0 6 -2 10 -4 10 -3 0
-8 -4 -11 -10z"/>
<path d="M6258 8398 c-19 -16 -50 -96 -43 -109 8 -12 55 -11 94 2 27 9 31 16
31 46 0 20 -4 32 -10 28 -5 -3 -10 3 -10 13 0 30 -35 41 -62 20z"/>
<path d="M8471 6534 c0 -11 3 -14 6 -6 3 7 2 16 -1 19 -3 4 -6 -2 -5 -13z"/>
<path d="M8720 6059 c0 -5 5 -7 10 -4 6 3 10 8 10 11 0 2 -4 4 -10 4 -5 0 -10
-5 -10 -11z"/>
<path d="M8785 5997 c-4 -9 -4 -33 0 -53 l6 -36 25 33 c29 40 30 49 5 49 -11
0 -21 6 -24 13 -3 8 -7 6 -12 -6z"/>
<path d="M8835 5800 c-20 -33 26 -65 53 -38 23 23 14 48 -17 48 -17 0 -33 -5
-36 -10z"/>
<path d="M8670 5020 c0 -5 4 -10 9 -10 6 0 13 5 16 10 3 6 -1 10 -9 10 -9 0
-16 -4 -16 -10z"/>
<path d="M5500 4960 c-13 -8 -12 -10 3 -10 9 0 17 5 17 10 0 12 -1 12 -20 0z"/>
<path d="M6780 4245 c-10 -12 -10 -15 4 -15 9 0 16 7 16 15 0 8 -2 15 -4 15
-2 0 -9 -7 -16 -15z"/>
<path d="M6256 3212 c-8 -13 11 -35 23 -28 16 10 14 36 -3 36 -8 0 -17 -4 -20
-8z"/>
<path d="M3778 11223 c12 -2 30 -2 40 0 9 3 -1 5 -23 4 -22 0 -30 -2 -17 -4z"/>
<path d="M4204 10726 c-4 -11 -2 -21 7 -27 31 -19 38 -5 15 27 -14 18 -15 18
-22 0z"/>
<path d="M3920 7286 c0 -12 11 -16 41 -16 52 0 48 24 -4 28 -28 2 -37 -1 -37
-12z"/>
</g>
</svg>
